<svg xmlns="http://www.w3.org/2000/svg" width="60px" height="60px" shape-rendering="geometricPrecision" text-rendering="geometricPrecision" image-rendering="optimizeQuality" fill-rule="evenodd" clip-rule="evenodd" viewBox="0 0 512 512.657"><path fill="#FCC005" d="M512 261.147l-69.536 33.581 30.634 52.739-57.987 12.448 21.998 72.925-70.476-20.187-10.645 60.111-54.707-31.289-30.625 71.182-39.792-65.776-47.165 36.853-19.166-58.468-71.456 29.197 16.26-71.456-61.416-6.718 26.04-53.718-55.685-28.831 43.562-42.241L0 207.438l76.254-25.061-21.623-56.5 60.111-2.948-11.507-72.444 68.508 31.655 23.093-57.155 46.021 38.488L281.136 0l29.321 71.171 54.706-25.061 8.187 58.143 72.436-15.935-26.415 71.132 59.456 16.209-35.54 49.956z"/><path fill="#fff" d="M423.142 255.426c0-46.844-16.541-86.644-49.623-119.559-33.092-32.926-73.049-49.466-119.716-49.466-46.684 0-86.485 16.54-119.403 49.466-32.926 32.915-49.466 72.715-49.466 119.559 0 46.667 16.54 86.633 49.466 119.884 32.918 33.248 72.716 49.956 119.403 49.956 46.667 0 86.624-16.708 119.716-49.956 33.082-33.248 49.623-73.214 49.623-119.881v-.003z"/><path fill="#2E2E2E" fill-rule="nonzero" d="M190.323 204.048v76.624h11.599c4.141 0 6.971-.517 8.496-1.551 1.526-1.035 2.287-3.405 2.287-7.109v-67.964h32.675v57.345c0 9.257-.6 16.719-1.798 22.382-1.199 5.664-3.431 10.457-6.698 14.379-3.267 3.919-7.732 6.642-13.395 8.168-5.663 1.526-13.016 2.287-22.055 2.287-9.043 0-16.367-.761-21.975-2.287-5.609-1.526-10.048-4.249-13.315-8.168-3.267-3.922-5.499-8.715-6.698-14.379-1.198-5.663-1.798-13.125-1.798-22.382v-57.345h32.675zm129.556 0h34.473l-25.325 102.11h-47.705L256 204.048h34.471l13.889 64.861h1.468l14.051-64.861z"/></svg>