<!-- icon666.com - MILLIONS vector ICONS FREE --><svg width="60px" height="60px" viewBox="-57 0 512 512.00041" xmlns="http://www.w3.org/2000/svg"><path d="m206.972656 503.269531h-17.464844c-19.285156 0-34.921874-15.636719-34.921874-34.925781l8.730468-8.730469h61.117188l17.460937 8.730469c0 19.289062-15.636719 34.925781-34.921875 34.925781zm0 0" fill="#ea9d2d"></path><path d="m198.238281 267.535156c-4.820312 0-8.730469-3.910156-8.730469-8.730468v-165.886719c0-4.820313 3.910157-8.730469 8.730469-8.730469 4.824219 0 8.734375 3.910156 8.734375 8.730469v165.886719c0 4.820312-3.910156 8.730468-8.734375 8.730468zm0 0" fill="#6fbbc6"></path><path d="m339.75 181.648438-135.328125-65.691407-139.695313-67.984375c-4.339843-2.113281-9.570312-.308594-11.679687 4.03125-2.113281 4.339844-.308594 9.570313 4.03125 11.683594l139.695313 67.996094 117.777343 57.273437h.054688l17.558593 8.398438c4.410157 1.945312 9.5625-.054688 11.507813-4.46875 1.851563-4.195313.136719-9.109375-3.921875-11.246094zm0 0" fill="#69b0bb"></path><path d="m343.800781 52.023438c-2.089843-4.339844-7.296875-6.167969-11.636719-4.085938l-17.558593 8.40625h-.054688l-117.671875 57.265625h-.097656l-139.695312 68.003906c-4.339844 2.101563-6.152344 7.324219-4.050782 11.664063 1.464844 3.023437 4.527344 4.9375 7.886719 4.925781 1.320313.003906 2.625-.292969 3.8125-.871094l139.695313-67.996093 135.328124-65.691407c4.3125-2.105469 6.117188-7.296875 4.042969-11.621093zm0 0" fill="#a8d6da"></path><path d="m87.359375 65.503906-11.457031 23.574219-62.808594-30.558594 11.453125-23.574219c8.4375-17.34375 29.339844-24.566406 46.683594-16.128906v.003906c17.34375 8.4375 24.566406 29.335938 16.128906 46.679688zm0 0" fill="#8aced8"></path><path d="m315.828125 181.730469 11.453125-23.574219 62.8125 30.558594-11.457031 23.570312c-8.4375 17.347656-29.339844 24.566406-46.683594 16.128906s-24.566406-29.339843-16.128906-46.683593zm0 0" fill="#8aced8"></path><path d="m12.273438 211.746094 11.453124 23.574218 62.808594-30.558593-11.453125-23.574219c-8.4375-17.34375-29.339843-24.566406-46.683593-16.128906v.003906c-17.34375 8.4375-24.566407 29.335938-16.128907 46.679688 0 0 .003907.003906.003907.003906zm0 0" fill="#b8eaee"></path><path d="m386.398438 32.300781-11.453126-23.574219-62.8125 30.558594 11.457032 23.574219c8.449218 17.308594 29.320312 24.507813 46.648437 16.089844 17.339844-8.425781 24.570313-29.304688 16.160157-46.648438zm0 0" fill="#b8eaee"></path><path d="m233.164062 259.40625-8.730468 16.859375h-52.386719l-8.730469-16.859375v-.601562c0-19.289063 15.636719-34.921876 34.921875-34.921876 19.289063 0 34.925781 15.632813 34.925781 34.921876zm0 0" fill="#69b0bb"></path><path d="m250.625 284.996094v183.347656h-104.769531v-183.347656" fill="#b9b9b9"></path><path d="m180.777344 354.84375h34.925781c4.820313 0 8.730469 3.910156 8.730469 8.730469v34.925781c0 4.820312-3.910156 8.730469-8.730469 8.730469h-34.925781c-4.820313 0-8.730469-3.910157-8.730469-8.730469v-34.925781c0-4.820313 3.910156-8.730469 8.730469-8.730469zm0 0" fill="#b8eaee"></path><path d="m186.601562 363.574219h23.277344c3.214844 0 5.824219 2.609375 5.824219 5.824219v23.277343c0 3.214844-2.609375 5.824219-5.824219 5.824219h-23.277344c-3.214843 0-5.824218-2.609375-5.824218-5.824219v-23.277343c0-3.214844 2.609375-5.824219 5.824218-5.824219zm0 0" fill="#c0f5f9"></path><path d="m237.046875 485.808594c3.140625-5.285156 4.816406-11.316406 4.847656-17.464844h-87.308593c.03125 6.148438 1.703124 12.179688 4.84375 17.464844zm0 0" fill="#da922a"></path><path d="m172.046875 259.40625h52.386719c14.464844 0 26.191406 11.726562 26.191406 26.195312v25.589844h-104.769531v-25.589844c0-14.46875 11.726562-26.195312 26.191406-26.195312zm0 0" fill="#fbb540"></path><path d="m180.777344 407.230469h34.925781c4.820313 0 8.730469-3.910157 8.730469-8.730469v-34.925781c0-4.820313-3.910156-8.730469-8.730469-8.730469h-34.925781c-4.820313 0-8.730469 3.910156-8.730469 8.730469v34.925781c0 4.820312 3.910156 8.730469 8.730469 8.730469zm8.730468-34.925781h17.464844v17.464843h-17.464844zm0 0"></path><path d="m78.96875 170.972656c-14.074219-19.535156-41.320312-23.960937-60.855469-9.886718-17.214843 12.402343-23 35.402343-13.699219 54.476562l11.464844 23.570312c2.105469 4.339844 7.332032 6.144532 11.667969 4.035157h.003906l62.808594-30.558594c4.335937-2.113281 6.136719-7.335937 4.027344-11.671875l-7.097657-14.597656 102.21875-49.765625v79.449219c-18.691406 3.96875-32.644531 19.617187-34.449218 38.644531-11.03125 6.113281-17.890625 17.71875-17.933594 30.328125v183.351562c0 4.820313 3.90625 8.730469 8.730469 8.730469h.871093c4.179688 20.308594 22.046876 34.894531 42.78125 34.921875h17.464844c20.734375-.027344 38.601563-14.613281 42.78125-34.921875h.871094c4.820312 0 8.730469-3.910156 8.730469-8.730469v-183.351562c-.042969-12.582032-6.878907-24.164063-17.871094-30.285156-1.773437-19.070313-15.769531-34.757813-34.511719-38.6875v-79.449219l96.683594 47.039062c-7.449219 22.851563 5.035156 47.410157 27.882812 54.863281 4.339844 1.414063 8.875 2.136719 13.441407 2.140626 16.714843-.003907 31.960937-9.535157 39.289062-24.558594l11.453125-23.574219c2.109375-4.335937.308594-9.5625-4.027344-11.671875-.003906 0-.003906 0-.003906 0l-62.8125-30.558594c-4.335937-2.109375-9.558594-.304687-11.667968 4.03125-.003907 0-.003907 0-.003907.003906l-6.488281 13.332032-92.546875-45.035156 101.601563-49.339844c5.210937 7.234375 12.53125 12.679687 20.953124 15.59375 4.597657 1.59375 9.429688 2.410156 14.292969 2.417968 24.140625-.050781 43.664063-19.664062 43.609375-43.800781-.011718-6.578125-1.511718-13.066406-4.382812-18.980469l-11.460938-23.574218c-2.117187-4.332032-7.34375-6.128906-11.675781-4.015625l-62.808594 30.558593c-4.335937 2.105469-6.144531 7.332032-4.035156 11.667969.007813.011719.011719.027344.019531.039063l7.175782 14.753906-104.488282 50.789062v-15.777343c0-4.820313-3.910156-8.730469-8.734375-8.730469-4.820312 0-8.730469 3.910156-8.730469 8.730469v15.785156l-94.109374-45.8125c7.03125-23.015625-5.929688-47.371094-28.945313-54.402344-20.523437-6.269531-42.554687 3.339844-51.929687 22.640625l-11.453126 23.574219c-2.113281 4.335937-.3125 9.5625 4.023438 11.671875l62.8125 30.558594c4.332031 2.113281 9.554688.316406 11.671875-4.015625l6.800781-13.96875 89.929688 43.757812-99.261719 48.28125zm-51.21875 52.65625-7.636719-15.714844c-6.527343-12.910156-1.355469-28.667968 11.554688-35.195312 12.910156-6.527344 28.667969-1.355469 35.195312 11.554688.121094.242187.238281.484374.351563.730468l7.640625 15.714844zm293.742188-38.078125 7.640624-15.714843 47.148438 22.910156-7.640625 15.714844c-6.328125 13.019531-22.011719 18.445312-35.027344 12.121093-13.019531-6.328125-18.445312-22.011719-12.121093-35.03125zm49.417968-165.097656 7.640625 15.714844c6.328125 13.019531.902344 28.703125-12.113281 35.03125-13.019531 6.328125-28.707031.90625-35.035156-12.113281l-7.636719-15.714844zm-163.9375 474.085937h-17.464844c-11.09375-.015624-20.984374-7.003906-24.699218-17.460937h66.863281c-3.714844 10.457031-13.605469 17.445313-24.699219 17.460937zm34.921875-34.925781h-87.308593v-139.691406h87.308593zm0-174.011719v16.859376h-87.308593v-16.859376c0-9.644531 7.816406-17.464843 17.460937-17.464843h52.386719c9.644531 0 17.460937 7.820312 17.460937 17.464843zm-43.65625-52.988281c11.085938.019531 20.953125 7.011719 24.648438 17.460938h-49.292969c3.691406-10.449219 13.5625-17.441407 24.644531-17.460938zm-120.902343-170.933593-7.640626 15.714843-47.101562-22.890625 7.636719-15.71875c6.328125-13.019531 22.011719-18.445312 35.027343-12.117187 13.019532 6.328125 18.445313 22.007812 12.121094 35.027343zm0 0"></path></svg>